<?xml version="1.0" encoding="utf-8"?>
<!-- Svg Vector Icons : http://www.onlinewebfonts.com/icon -->
<!DOCTYPE svg PUBLIC "-//W3C//DTD SVG 1.1//EN" "http://www.w3.org/Graphics/SVG/1.1/DTD/svg11.dtd">
<svg version="1.1" xmlns="http://www.w3.org/2000/svg" xmlns:xlink="http://www.w3.org/1999/xlink" x="0px" y="0px" viewBox="0 0 1000 1000" enable-background="new 0 0 1000 1000" xml:space="preserve">
<metadata> Svg Vector Icons : http://www.onlinewebfonts.com/icon </metadata>
<g><g transform="translate(0.000000,511.000000) scale(0.100000,-0.100000)"><path d="M5271,4979.7c-664.8-119.1-1248.3-555.7-1550-1157c-170.7-339.4-238.1-643-226.2-1026l6-238.2l-200.4-2c-650.9-7.9-1262.2-301.7-1661.1-801.8c-595.4-744.2-645-1752.4-125-2556.2c109.2-170.7,333.4-406.8,506.1-539.8c186.6-140.9,529.9-305.6,766.1-367.1c470.3-121,1020.1-69.5,1446.8,131l129,61.5l73.4-81.4c184.6-202.4,541.8-436.6,823.6-537.8l176.6-63.5v-1214.6v-1214.6l45.6-67.5c23.8-37.7,69.5-75.4,99.2-85.4c77.4-27.8,190.5,7.9,240.1,73.5c41.7,55.5,41.7,73.4,47.6,1242.3l4,1186.8l234.2,11.9c396.9,19.8,789.9,150.8,1117.3,371.1c174.7,119.1,434.6,375.1,555.7,549.7c136.9,198.5,267.9,482.2,329.5,714.5c41.7,156.8,51.6,250.1,57.5,488.2l6,291.7l111.1,125c309.6,339.4,498.1,768,549.7,1240.4c67.5,621.2-182.6,1297.9-652.9,1754.4c-123,119.1-396.9,323.5-462.4,343.3c-25.8,7.9-71.4,75.4-123,174.6c-218.3,436.6-563.6,785.9-988.3,1000.2C6217.6,4983.7,5701.6,5057.1,5271,4979.7z M6078.7,4533.2c291.7-75.4,531.9-208.4,762.1-424.7c166.7-154.8,281.8-319.5,398.9-569.6c97.2-204.4,99.2-204.4,224.3-271.9c466.4-250.1,789.9-660.9,908.9-1153c53.6-230.2,53.6-563.6,0-793.8c-75.4-313.6-303.6-698.6-529.9-893.1c-125-109.2-133-134.9-105.2-355.2c75.4-627.1-226.2-1260.2-776-1627.4c-269.9-182.6-573.5-277.8-903-285.8l-176.6-4l-4,1270.1l-4,1270.2l446.5,406.8c551.7,502.1,563.6,516,563.6,613.2c0,148.8-148.8,252.1-281.8,192.5c-35.7-15.9-210.4-162.7-387-327.5c-176.6-164.7-325.4-299.7-331.4-299.7c-6,0-13.9,508.1-15.9,1131.2l-5.9,1131.2l-61.5,61.5c-69.5,67.5-168.7,85.3-250.1,39.7c-109.2-57.6-105.2,45.6-115.1-2058l-9.9-1944.9L4403.7,183c-746.2,394.9-1039.9,541.8-1087.6,541.8c-95.3,0-202.4-109.2-202.4-200.4c2-37.7,13.9-89.3,27.8-117.1c21.8-35.7,331.4-210.4,1157-647l1127.2-599.3l5.9-458.4l4-458.5l-113.1,49.6c-262,117.1-490.2,291.8-690.6,529.9c-138.9,168.7-208.4,188.5-345.3,107.1c-502.1-299.7-1000.2-361.2-1520.2-188.5c-262,87.3-464.4,214.3-674.8,426.7c-345.3,347.3-506.1,740.2-506.1,1232.4c0,351.3,91.3,658.9,275.9,938.7c101.2,152.8,305.6,371.1,450.5,476.3c125,89.3,377.1,210.4,543.8,258c210.4,61.5,557.7,75.4,770,31.8c190.5-37.7,244.1-29.8,313.6,53.6c57.6,69.5,57.6,121.1-2,410.8c-93.3,448.5,41.7,968.5,353.3,1359.4c273.9,345.3,692.6,583.5,1127.3,645C5596.4,4598.7,5892.1,4580.8,6078.7,4533.2z"/></g></g>
</svg>